PathFileType	4	(X/Y/Z)	C:\Users\ebm\Documents\Erivelton\Erivelton2\wc1.trc
DataRate	CameraRate	NumFrames	NumMarkers	Units	OrigDataRate	OrigDataStartFrame	OrigNumFrames
150.00	150.00	       13	28	mm	150.00	657	       750
Frame#	Time	IJ			PX			C7			T8			RAC			RAS			RPS			RAI			RPI			RLE			RME			RRS			RUS			R3M			R5M			LAC			LAS			LPS			LAI			LPI			LLE			LME			LRS			LUS			L3M			L5M			RW			LW			V_mid_elbow_r			V_mid_elbow_l			V_mid_wrist_r			V_mid_wrist_l			V_mid_trunk_low			V_mid_trunk_upp			
		X1	Y1	Z1	X2	Y2	Z2	X3	Y3	Z3	X4	Y4	Z4	X5	Y5	Z5	X6	Y6	Z6	X7	Y7	Z7	X8	Y8	Z8	X9	Y9	Z9	X10	Y10	Z10	X11	Y11	Z11	X12	Y12	Z12	X13	Y13	Z13	X14	Y14	Z14	X15	Y15	Z15	X16	Y16	Z16	X17	Y17	Z17	X18	Y18	Z18	X19	Y19	Z19	X20	Y20	Z20	X21	Y21	Z21	X22	Y22	Z22	X23	Y23	Z23	X24	Y24	Z24	X25	Y25	Z25	X26	Y26	Z26	X27	Y27	Z27	X28	Y28	Z28	

657	4.373	2458.01685	1028.59778	-200.69246	2480.39697	864.38037	-185.65553	2323.14453	1119.27295	-207.01215	2257.07739	965.20892	-195.82277	2378.05249	1064.49451	4.34474	2409.53320	871.94202	65.97908	2359.68677	872.04492	66.20126	2418.42114	797.42120	87.82018	2365.05176	794.16437	88.70984	2378.87476	733.41656	99.01389	2368.75830	710.90399	25.75013	2551.85596	528.49298	148.15230	2494.84961	514.29114	160.44867	2558.16724	440.16531	171.17952	2521.20947	430.54227	160.63116	2364.47363	1056.79407	-388.74606	2367.41455	884.48431	-458.82004	2322.80884	873.83807	-442.51251	2385.88184	807.35345	-477.02704	2336.21167	792.71356	-458.72946	2378.61987	722.72980	-489.49542	2355.51685	700.72949	-419.94965	2545.76025	517.48700	-509.81842	2493.19897	487.52493	-532.96606	2558.58374	425.20801	-531.90613	2518.85181	421.61960	-530.94171	2439.16748	299.36896	131.43134	2426.99219	297.64063	-497.24741	
658	4.380	2458.01343	1028.59961	-200.68538	2480.39160	864.39001	-185.65544	2323.14087	1119.27161	-207.01234	2257.06787	965.22089	-195.81450	2378.04590	1064.47852	4.30457	2409.51245	871.93414	65.98159	2359.67554	872.04639	66.20364	2418.42676	797.42163	87.80936	2365.04272	794.15820	88.71590	2378.86865	733.41791	99.01830	2368.77124	710.89789	25.72618	2551.85571	528.50751	148.16249	2494.85547	514.29736	160.44290	2558.16772	440.16452	171.17679	2521.23242	430.54059	160.63657	2364.47559	1056.80286	-388.73361	2367.40332	884.48547	-458.82016	2322.82178	873.83691	-442.50552	2385.88501	807.35114	-477.02118	2336.21069	792.72412	-458.72485	2378.63232	722.73236	-489.49866	2355.48560	700.75476	-419.96921	2545.77368	517.49622	-509.81705	2493.19971	487.55414	-532.96442	2558.58228	425.20575	-531.90869	2518.84863	421.61960	-530.95197	2439.16406	299.36383	131.42519	2426.99902	297.63321	-497.24637	
659	4.387	2458.00928	1028.60547	-200.68709	2480.36914	864.39282	-185.64922	2323.14429	1119.27295	-207.00833	2257.05664	965.21082	-195.83156	2378.03687	1064.47180	4.30554	2409.49487	871.92566	65.98397	2359.67041	872.04553	66.19920	2418.41333	797.41241	87.81612	2365.04077	794.14813	88.70934	2378.87427	733.39984	99.00368	2368.76147	710.89478	25.73314	2551.86694	528.51129	148.16393	2494.85791	514.29315	160.43674	2558.18848	440.16324	171.17461	2521.23462	430.54214	160.63454	2364.47095	1056.80615	-388.72849	2367.41650	884.48425	-458.82013	2322.82007	873.84332	-442.51294	2385.89941	807.36670	-477.01511	2336.21606	792.72333	-458.72485	2378.62329	722.74805	-489.49695	2355.50952	700.74384	-419.95767	2545.77393	517.44952	-509.87604	2493.19653	487.55316	-532.98004	2558.58984	425.20859	-531.91309	2518.86963	421.63153	-530.95850	2439.16382	299.35776	131.42867	2426.98584	297.64001	-497.25742	
660	4.393	2458.01733	1028.60913	-200.67416	2480.34985	864.39917	-185.64955	2323.11987	1119.27051	-207.00308	2257.06421	965.21167	-195.81985	2378.01929	1064.46899	4.31145	2409.48804	871.91974	65.98643	2359.65747	872.03040	66.20448	2418.40552	797.40625	87.81322	2365.03271	794.14154	88.71529	2378.85767	733.39099	99.00494	2368.76733	710.88037	25.73018	2551.86719	528.50488	148.15610	2494.86279	514.28485	160.43819	2558.18970	440.16370	171.17067	2521.25488	430.52835	160.61885	2364.47534	1056.80994	-388.73331	2367.40869	884.49799	-458.81747	2322.82300	873.84711	-442.51031	2385.90820	807.36609	-477.02094	2336.22168	792.72400	-458.72968	2378.62646	722.75378	-489.49786	2355.48975	700.75439	-419.96213	2545.78003	517.50250	-509.82458	2493.20337	487.55942	-532.97980	2558.58374	425.21259	-531.92468	2518.86523	421.63651	-530.95850	2439.16821	299.35706	131.43024	2426.99268	297.63486	-497.25555	
661	4.400	2457.99536	1028.61401	-200.67201	2480.06860	864.05652	-185.66919	2323.12256	1119.26184	-207.00298	2257.05542	965.19757	-195.82387	2378.00635	1064.47021	4.31766	2409.48462	871.92456	65.98308	2359.65210	872.02490	66.20409	2418.39941	797.40057	87.81673	2365.02808	794.13312	88.71075	2378.86572	733.37927	98.99343	2368.76880	710.87903	25.72497	2551.87280	528.51172	148.16270	2494.87305	514.28516	160.43253	2558.21851	440.17020	171.16568	2521.26514	430.54593	160.62332	2364.47681	1056.81848	-388.73569	2367.41748	884.48938	-458.81247	2322.82788	873.84839	-442.50577	2385.90430	807.37000	-477.01624	2336.22949	792.73145	-458.72836	2378.64844	722.77795	-489.50943	2355.52808	700.75366	-419.96054	2545.77783	517.50922	-509.82422	2493.21045	487.56448	-532.97693	2558.60059	425.23499	-531.92303	2518.87085	421.64874	-530.97144	2439.16577	299.36139	131.42317	2427.00366	297.63867	-497.25604	
662	4.407	2457.99390	1028.61548	-200.64960	2480.06226	864.05499	-185.66054	2323.12085	1119.27258	-206.99551	2257.04834	965.20447	-195.83025	2377.98877	1064.46436	4.32155	2409.46924	871.91840	65.99185	2359.64575	872.02130	66.20683	2418.39819	797.40021	87.81300	2365.01929	794.13501	88.70731	2378.84741	733.37970	98.99287	2368.76831	710.85907	25.72348	2551.87280	528.50922	148.16203	2494.87109	514.28534	160.42932	2558.21118	440.16989	171.16063	2521.27026	430.54013	160.61864	2364.46680	1056.81885	-388.71960	2367.42310	884.49933	-458.80896	2322.83154	873.85431	-442.50409	2385.91406	807.37952	-477.01810	2336.23071	792.72833	-458.73367	2378.65332	722.76514	-489.49731	2355.51660	700.76996	-419.96268	2545.79004	517.46167	-509.87686	2493.20532	487.56345	-532.98962	2558.59473	425.23291	-531.93842	2518.87646	421.65396	-530.97113	2439.16968	299.35645	131.42250	2426.99438	297.63898	-497.26343	
663	4.413	2457.98853	1028.61963	-200.65015	2480.08691	864.05194	-185.66232	2323.11328	1119.26538	-206.99025	2257.04736	965.19867	-195.82761	2377.97778	1064.46191	4.32146	2409.47217	871.91870	65.98840	2359.62183	872.01538	66.20471	2418.38916	797.39850	87.81673	2365.01392	794.12451	88.71924	2378.84424	733.37524	99.00870	2368.78198	710.86267	25.70991	2551.89429	528.52094	148.15913	2494.88525	514.28857	160.42487	2558.22656	440.17999	171.15819	2521.28638	430.55075	160.60289	2364.48535	1056.80823	-388.71518	2367.43604	884.50787	-458.80777	2322.83984	873.86157	-442.50989	2385.91309	807.38098	-477.02011	2336.24414	792.73340	-458.72714	2378.65869	722.77228	-489.50259	2355.49414	700.77777	-419.99835	2545.80176	517.46454	-509.87405	2493.21875	487.57956	-532.99097	2558.60181	425.22720	-531.93298	2518.87305	421.64871	-530.98242	2439.16968	299.36169	131.42549	2426.99170	297.64020	-497.25574	
664	4.420	2458.00073	1028.63257	-200.64224	2480.08887	864.04614	-185.66719	2323.11499	1119.26233	-206.98633	2257.04590	965.19745	-195.83153	2377.96729	1064.46021	4.33209	2409.45728	871.91632	65.99065	2359.62183	872.00818	66.20406	2418.38062	797.39752	87.82651	2365.00610	794.11694	88.71320	2378.83765	733.36682	98.99717	2368.78101	710.86639	25.69667	2551.88379	528.51312	148.15349	2494.88013	514.28497	160.42058	2558.22754	440.17688	171.15962	2521.28857	430.53421	160.60394	2364.47778	1056.81726	-388.71082	2367.43140	884.50220	-458.79776	2322.84009	873.86261	-442.50104	2385.92041	807.38666	-477.01022	2336.24146	792.73901	-458.72906	2378.66602	722.81628	-489.53909	2355.50610	700.77393	-419.98599	2545.80811	517.46942	-509.87457	2493.23950	487.58246	-532.99316	2558.61475	425.23520	-531.94641	2518.88550	421.66956	-530.98926	2439.16943	299.36383	131.42281	2427.01367	297.62637	-497.24850	
665	4.427	2457.99048	1028.63062	-200.64256	2480.08154	864.05017	-185.66928	2323.10840	1119.26086	-206.98216	2257.04126	965.20129	-195.82167	2377.94238	1064.46191	4.38525	2409.45264	871.90100	65.99451	2359.61206	872.00342	66.21274	2418.37451	797.38928	87.81908	2364.99731	794.11334	88.70992	2378.82959	733.36926	98.99091	2368.77148	710.86096	25.71764	2551.89380	528.50818	148.15080	2494.87915	514.28796	160.42076	2558.22485	440.17038	171.15396	2521.30298	430.54214	160.59435	2364.48462	1056.82703	-388.68201	2367.43579	884.51178	-458.79541	2322.84253	873.86346	-442.49652	2385.92896	807.38702	-477.00433	2336.25073	792.73932	-458.72168	2378.68359	722.79089	-489.49350	2355.51416	700.76495	-419.97293	2545.80103	517.46082	-509.87784	2493.25391	487.59097	-532.99042	2558.61304	425.23871	-531.94653	2518.88208	421.66498	-530.99292	2439.17944	299.36188	131.41936	2427.00415	297.63428	-497.25488	
666	4.433	2457.98511	1028.61694	-200.62492	2480.07837	864.04755	-185.65877	2323.09814	1119.26013	-206.96414	2257.03735	965.19397	-195.80823	2377.94312	1064.45020	4.33772	2409.43726	871.90320	65.99901	2359.60107	872.00610	66.20612	2418.35718	797.38824	87.82395	2364.99146	794.10498	88.71757	2378.83496	733.36475	99.00317	2368.75317	710.86652	25.71438	2551.90381	528.51471	148.16382	2494.87769	514.27856	160.41713	2558.24023	440.17435	171.14127	2521.30444	430.53549	160.59230	2364.48022	1056.80652	-388.67432	2367.44751	884.51526	-458.79300	2322.84375	873.86731	-442.49649	2385.93921	807.39410	-477.00076	2336.26050	792.73853	-458.71777	2378.68506	722.77887	-489.49911	2355.52295	700.76373	-419.97757	2545.80762	517.47015	-509.87076	2493.26294	487.58719	-532.99390	2558.63794	425.24805	-531.93616	2518.90967	421.67023	-530.98401	2439.17139	299.36221	131.42265	2426.99951	297.64413	-497.26660	
667	4.440	2457.97827	1028.61243	-200.62300	2480.08032	864.04138	-185.65889	2323.09521	1119.26794	-206.96417	2257.04199	965.19183	-195.80911	2377.93579	1064.44543	4.34585	2409.44507	871.89929	66.00792	2359.59351	871.99219	66.20527	2418.36084	797.37994	87.83067	2364.98389	794.09363	88.71696	2378.82007	733.35077	98.98521	2368.75415	710.84583	25.72548	2551.89209	528.50824	148.15651	2494.88916	514.27356	160.41110	2558.25000	440.16580	171.14015	2521.30664	430.52173	160.58476	2364.48486	1056.81689	-388.68149	2367.44312	884.50714	-458.79550	2322.84741	873.85730	-442.49069	2385.93286	807.39252	-477.01080	2336.25903	792.74292	-458.72394	2378.68433	722.78125	-489.48819	2355.53149	700.76807	-419.96161	2545.83008	517.47137	-509.86868	2493.26929	487.59055	-532.99872	2558.63696	425.24637	-531.94299	2518.90503	421.67175	-530.99799	2439.18408	299.37067	131.42053	2426.99292	297.62115	-497.26117	
668	4.447	2457.98047	1028.61218	-200.61319	2480.06250	864.03632	-185.66655	2323.09863	1119.25452	-206.95769	2257.05054	965.16388	-195.77094	2377.93042	1064.43286	4.35271	2409.42041	871.89020	66.00103	2359.59033	871.98224	66.21063	2418.34399	797.36993	87.83292	2364.97583	794.08447	88.71394	2378.81592	733.34320	98.98995	2368.74805	710.84113	25.71967	2551.91357	528.48041	148.08681	2494.88574	514.26331	160.40984	2558.24536	440.15259	171.13161	2521.30811	430.50623	160.57841	2364.49243	1056.81445	-388.66101	2367.44189	884.51373	-458.79047	2322.84961	873.86304	-442.49344	2385.94189	807.39355	-477.00146	2336.25586	792.73724	-458.71661	2378.68115	722.78314	-489.49960	2355.54858	700.75562	-419.95309	2545.82153	517.47253	-509.87207	2493.25903	487.58621	-532.98462	2558.63574	425.24811	-531.94958	2518.90430	421.67810	-530.98547	2439.18018	299.35287	131.41667	2426.99707	297.63550	-497.26678	
669	4.453	2457.99390	1028.60132	-200.59857	2480.05127	864.03149	-185.66969	2323.09985	1119.25696	-206.94144	2257.03687	965.18085	-195.78464	2377.92847	1064.42236	4.36216	2409.42310	871.87823	66.00904	2359.59790	871.97015	66.22054	2418.33472	797.35437	87.83451	2364.97412	794.07422	88.72245	2378.81250	733.33301	99.00219	2368.76001	710.82568	25.71632	2551.89551	528.49438	148.16966	2494.89014	514.25092	160.41286	2558.25537	440.14526	171.13060	2521.32251	430.49341	160.56258	2364.49365	1056.81299	-388.66718	2367.45313	884.50854	-458.78317	2322.85596	873.85779	-442.48608	2385.94189	807.39484	-476.99731	2336.26392	792.74329	-458.72952	2378.67676	722.78943	-489.50497	2355.54102	700.75751	-419.94516	2545.82397	517.47498	-509.86981	2493.26392	487.58914	-532.99500	2558.64941	425.24789	-531.94281	2518.91675	421.67776	-530.99200	2439.18091	299.35156	131.42657	2426.99536	297.63641	-497.25928	
